<svg xmlns="http://www.w3.org/2000/svg" viewBox="0 0 800 800" fill="none"><defs></defs><rect x="0" y="0" width="800" height="800" rx="0" fill="#050508" /><path d="M 0 5 L 800 5" fill="none" stroke="#8888aa" stroke-width="2" opacity="0.35"/><path d="M 0 57 L 800 57" fill="none" stroke="#8888aa" stroke-width="2" opacity="0.35"/><path d="M 0 113 L 800 113" fill="none" stroke="#8888aa" stroke-width="2" opacity="0.35"/><path d="M 0 170 L 800 170" fill="none" stroke="#8888aa" stroke-width="2" opacity="0.35"/><path d="M 0 227 L 800 227" fill="none" stroke="#8888aa" stroke-width="2" opacity="0.35"/><path d="M 0 287 L 800 287" fill="none" stroke="#8888aa" stroke-width="2" opacity="0.35"/><path d="M 0 336 L 800 336" fill="none" stroke="#8888aa" stroke-width="2" opacity="0.35"/><path d="M 0 399 L 800 399" fill="none" stroke="#8888aa" stroke-width="2" opacity="0.35"/><path d="M 0 452 L 800 452" fill="none" stroke="#8888aa" stroke-width="2" opacity="0.35"/><path d="M 0 509 L 800 509" fill="none" stroke="#8888aa" stroke-width="2" opacity="0.35"/><path d="M 0 563 L 800 563" fill="none" stroke="#8888aa" stroke-width="2" opacity="0.35"/><path d="M 0 621 L 800 621" fill="none" stroke="#8888aa" stroke-width="2" opacity="0.35"/><path d="M 0 679 L 800 679" fill="none" stroke="#8888aa" stroke-width="2" opacity="0.35"/><path d="M 0 734 L 800 734" fill="none" stroke="#8888aa" stroke-width="2" opacity="0.35"/><path d="M 0 785 L 800 785" fill="none" stroke="#8888aa" stroke-width="2" opacity="0.35"/></svg>